<svg width="32" height="32" viewBox="0 0 32 32" xmlns="http://www.w3.org/2000/svg">
  <defs>
    <linearGradient id="logoGradient" x1="0%" y1="0%" x2="100%" y2="100%">
      <stop offset="0%" style="stop-color:#2196F3;stop-opacity:1" />
      <stop offset="100%" style="stop-color:#21CBF3;stop-opacity:1" />
    </linearGradient>
    <linearGradient id="iconGradient" x1="0%" y1="0%" x2="100%" y2="100%">
      <stop offset="0%" style="stop-color:#1976d2;stop-opacity:1" />
      <stop offset="100%" style="stop-color:#2196F3;stop-opacity:1" />
    </linearGradient>
  </defs>
  
  <!-- Background circle with gradient -->
  <circle cx="16" cy="16" r="15" fill="url(#logoGradient)" stroke="#ffffff" stroke-width="1"/>
  
  <!-- Autorenew icon in the center -->
  <g transform="translate(16,16)">
    <!-- First arrow path -->
    <path d="M-6,-3 L-3,-6 L-3,-4 L3,-4 C5.2,4 5.2,-4 3,-4 L3,-2 C4.1,-2 4.1,-2 3,-2 L3,0 L6,-3 L3,-6 L3,-4" 
          fill="white" 
          stroke="white" 
          stroke-width="0.5"/>
    
    <!-- Second arrow path (rotated) -->
    <path d="M6,3 L3,6 L3,4 L-3,4 C-5.2,4 -5.2,4 -3,4 L-3,2 C-4.1,2 -4.1,2 -3,2 L-3,0 L-6,3 L-3,6 L-3,4" 
          fill="white" 
          stroke="white" 
          stroke-width="0.5"/>
  </g>
</svg>